<svg width="25" height="12" viewBox="0 0 25 12" fill="none" xmlns="http://www.w3.org/2000/svg">
<path d="M4.08899 11.75C3.34966 11.8243 2.60408 11.695 1.93299 11.376C1.48128 11.1378 1.11212 10.7687 0.873986 10.317C0.554597 9.64601 0.425243 8.90033 0.499986 8.16098V3.83899C0.425243 3.09964 0.554597 2.35396 0.873986 1.68299C1.11212 1.23128 1.48128 0.862123 1.93299 0.623985C2.60396 0.304596 3.34964 0.175243 4.08899 0.249985H18.91C19.6497 0.175108 20.3957 0.304464 21.067 0.623985C21.5182 0.86202 21.887 1.23079 22.125 1.68199C22.4442 2.35339 22.5738 3.09925 22.5 3.83899V8.16098C22.574 8.9003 22.4446 9.64578 22.126 10.317C21.888 10.7682 21.5192 11.137 21.068 11.375C20.3965 11.694 19.6506 11.8233 18.911 11.749L4.08899 11.75ZM2.39999 1.50599C2.12253 1.65107 1.89607 1.87753 1.75099 2.15499C1.52245 2.68498 1.43594 3.26538 1.49999 3.83899V8.16098C1.43663 8.73668 1.52488 9.31893 1.75599 9.84999C1.9006 10.1275 2.12721 10.3538 2.40499 10.498C2.93457 10.7293 3.51551 10.8179 4.08999 10.755H18.91C19.4848 10.818 20.0661 10.7294 20.596 10.498C20.8725 10.3524 21.0984 10.1265 21.244 9.84999C21.4751 9.31893 21.5633 8.73668 21.5 8.16098V3.83899C21.5633 3.2633 21.4751 2.68104 21.244 2.14999C21.0985 1.87316 20.8726 1.6469 20.596 1.50099C20.0654 1.27219 19.4843 1.18568 18.91 1.24999H4.08899C3.5133 1.18663 2.93104 1.27488 2.39999 1.50599V1.50599ZM23.5 3.93999C23.5 3.93999 25 4.70299 25 5.93999C25 7.17699 23.5 7.93999 23.5 7.93999V3.93999Z" fill="black" fill-opacity="0.36"/>
<path d="M18.9 2.16699H4.09998C3.21633 2.16699 2.49998 2.88334 2.49998 3.76699V8.23399C2.49998 9.11765 3.21633 9.83399 4.09998 9.83399H18.9C19.7836 9.83399 20.5 9.11765 20.5 8.23399V3.76699C20.5 2.88334 19.7836 2.16699 18.9 2.16699Z" fill="#0F1828"/>
</svg>
