<svg width="16" height="12" viewBox="0 0 16 12" fill="none" xmlns="http://www.w3.org/2000/svg">
<path d="M7.80001 11.547C7.75848 11.5468 7.7174 11.5384 7.67913 11.5223C7.64086 11.5061 7.60615 11.4826 7.57701 11.453L5.56201 9.422C5.53126 9.3917 5.50703 9.35543 5.49079 9.31542C5.47456 9.27541 5.46666 9.23251 5.4676 9.18935C5.46854 9.14618 5.47828 9.10366 5.49624 9.0644C5.51419 9.02513 5.53998 8.98995 5.57201 8.961C6.19502 8.4341 6.98457 8.145 7.80051 8.145C8.61646 8.145 9.40601 8.4341 10.029 8.961C10.0604 8.99011 10.0855 9.02537 10.1027 9.0646C10.1199 9.10382 10.1289 9.14617 10.129 9.189C10.1298 9.23225 10.1218 9.27521 10.1055 9.31526C10.0891 9.35532 10.0648 9.39164 10.034 9.422L8.02401 11.454C7.99467 11.4835 7.95977 11.507 7.92132 11.5229C7.88288 11.5389 7.84164 11.5471 7.80001 11.547V11.547ZM11.337 7.98C11.2569 7.9805 11.1797 7.94963 11.122 7.894C10.2125 7.06981 9.02893 6.61333 7.80151 6.61333C6.5741 6.61333 5.39055 7.06981 4.48101 7.894C4.42233 7.95064 4.34375 7.98195 4.2622 7.9812C4.18064 7.98046 4.10265 7.9477 4.04501 7.89L2.88001 6.712C2.84932 6.68176 2.82495 6.64573 2.80832 6.60598C2.79169 6.56624 2.78312 6.52359 2.78312 6.4805C2.78312 6.43742 2.79169 6.39477 2.80832 6.35502C2.82495 6.31528 2.84932 6.27924 2.88001 6.249C4.21592 5.00657 5.97265 4.31592 7.79701 4.31592C9.62138 4.31592 11.3781 5.00657 12.714 6.249C12.7447 6.27924 12.7691 6.31528 12.7857 6.35502C12.8023 6.39477 12.8109 6.43742 12.8109 6.4805C12.8109 6.52359 12.8023 6.56624 12.7857 6.60598C12.7691 6.64573 12.7447 6.68176 12.714 6.712L11.559 7.89C11.5298 7.91907 11.4952 7.94208 11.4571 7.9577C11.419 7.97331 11.3782 7.98124 11.337 7.981V7.98ZM14.02 5.273C13.939 5.27317 13.8611 5.24158 13.803 5.185C12.1834 3.64576 10.0344 2.78747 7.80001 2.78747C5.56564 2.78747 3.41663 3.64576 1.79701 5.185C1.73866 5.24173 1.6604 5.27332 1.57901 5.273C1.53805 5.27317 1.49747 5.26512 1.45968 5.24932C1.42189 5.23351 1.38766 5.21028 1.35901 5.181L0.194014 4.005C0.163777 3.97482 0.13979 3.93897 0.123424 3.8995C0.107057 3.86003 0.0986328 3.81773 0.0986328 3.775C0.0986328 3.73228 0.107057 3.68997 0.123424 3.65051C0.13979 3.61104 0.163777 3.57519 0.194014 3.545C2.23976 1.58467 4.96364 0.490265 7.79701 0.490265C10.6304 0.490265 13.3543 1.58467 15.4 3.545C15.4304 3.57512 15.4545 3.61095 15.4709 3.65043C15.4873 3.6899 15.4958 3.73224 15.4958 3.775C15.4958 3.81777 15.4873 3.8601 15.4709 3.89958C15.4545 3.93905 15.4304 3.97488 15.4 4.005L14.24 5.181C14.2114 5.21028 14.1771 5.23351 14.1393 5.24932C14.1016 5.26512 14.061 5.27317 14.02 5.273V5.273Z" fill="#0F1828"/>
</svg>
