<svg width="18" height="12" viewBox="0 0 18 12" fill="none" xmlns="http://www.w3.org/2000/svg">
<path d="M15.3 11.39C14.9817 11.39 14.6765 11.2635 14.4515 11.0385C14.2264 10.8135 14.1 10.5082 14.1 10.19V1.88997C14.1 1.57171 14.2264 1.26649 14.4515 1.04144C14.6765 0.8164 14.9817 0.689972 15.3 0.689972H15.9C16.2183 0.689972 16.5235 0.8164 16.7485 1.04144C16.9736 1.26649 17.1 1.57171 17.1 1.88997V10.19C17.1 10.5082 16.9736 10.8135 16.7485 11.0385C16.5235 11.2635 16.2183 11.39 15.9 11.39H15.3ZM10.6 11.39C10.2817 11.39 9.97652 11.2635 9.75147 11.0385C9.52643 10.8135 9.4 10.5082 9.4 10.19V4.28997C9.4 3.97171 9.52643 3.66649 9.75147 3.44144C9.97652 3.2164 10.2817 3.08997 10.6 3.08997H11.2C11.5183 3.08997 11.8235 3.2164 12.0485 3.44144C12.2736 3.66649 12.4 3.97171 12.4 4.28997V10.19C12.4 10.5082 12.2736 10.8135 12.0485 11.0385C11.8235 11.2635 11.5183 11.39 11.2 11.39H10.6ZM6 11.39C5.68174 11.39 5.37652 11.2635 5.15147 11.0385C4.92643 10.8135 4.8 10.5082 4.8 10.19V6.58997C4.8 6.27171 4.92643 5.96649 5.15147 5.74144C5.37652 5.5164 5.68174 5.38997 6 5.38997H6.6C6.91826 5.38997 7.22348 5.5164 7.44853 5.74144C7.67357 5.96649 7.8 6.27171 7.8 6.58997V10.19C7.8 10.5082 7.67357 10.8135 7.44853 11.0385C7.22348 11.2635 6.91826 11.39 6.6 11.39H6ZM1.2 11.39C0.88174 11.39 0.576516 11.2635 0.351472 11.0385C0.126428 10.8135 0 10.5082 0 10.19L0 8.58997C0 8.27171 0.126428 7.96649 0.351472 7.74144C0.576516 7.5164 0.88174 7.38997 1.2 7.38997H1.8C2.11826 7.38997 2.42348 7.5164 2.64853 7.74144C2.87357 7.96649 3 8.27171 3 8.58997V10.19C3 10.5082 2.87357 10.8135 2.64853 11.0385C2.42348 11.2635 2.11826 11.39 1.8 11.39H1.2Z" fill="#0F1828"/>
</svg>
