<svg width="24" height="24" viewBox="0 0 24 24" fill="none" xmlns="http://www.w3.org/2000/svg">
<path fill-rule="evenodd" clip-rule="evenodd" d="M23 4.25C23 3.65326 22.7629 3.08097 22.341 2.65901C21.919 2.23705 21.3467 2 20.75 2H16.25C15.6533 2 15.081 2.23705 14.659 2.65901C14.2371 3.08097 14 3.65326 14 4.25V8.75C14 9.34674 14.2371 9.91903 14.659 10.341C15.081 10.7629 15.6533 11 16.25 11H20.75C21.3467 11 21.919 10.7629 22.341 10.341C22.7629 9.91903 23 9.34674 23 8.75V4.25ZM20.75 3.5C20.9489 3.5 21.1397 3.57902 21.2803 3.71967C21.421 3.86032 21.5 4.05109 21.5 4.25V8.75C21.5 8.94891 21.421 9.13968 21.2803 9.28033C21.1397 9.42098 20.9489 9.5 20.75 9.5H16.25C16.0511 9.5 15.8603 9.42098 15.7197 9.28033C15.579 9.13968 15.5 8.94891 15.5 8.75V4.25C15.5 4.05109 15.579 3.86032 15.7197 3.71967C15.8603 3.57902 16.0511 3.5 16.25 3.5H20.75ZM11 4.25C11 3.65326 10.7629 3.08097 10.341 2.65901C9.91903 2.23705 9.34674 2 8.75 2H4.25C3.65326 2 3.08097 2.23705 2.65901 2.65901C2.23705 3.08097 2 3.65326 2 4.25V8.75C2 9.34674 2.23705 9.91903 2.65901 10.341C3.08097 10.7629 3.65326 11 4.25 11H8.75C9.34674 11 9.91903 10.7629 10.341 10.341C10.7629 9.91903 11 9.34674 11 8.75V4.25ZM8.75 3.5C8.94891 3.5 9.13968 3.57902 9.28033 3.71967C9.42098 3.86032 9.5 4.05109 9.5 4.25V8.75C9.5 8.94891 9.42098 9.13968 9.28033 9.28033C9.13968 9.42098 8.94891 9.5 8.75 9.5H4.25C4.05109 9.5 3.86032 9.42098 3.71967 9.28033C3.57902 9.13968 3.5 8.94891 3.5 8.75V4.25C3.5 4.05109 3.57902 3.86032 3.71967 3.71967C3.86032 3.57902 4.05109 3.5 4.25 3.5H8.75ZM23 16.25C23 15.6533 22.7629 15.081 22.341 14.659C21.919 14.2371 21.3467 14 20.75 14H16.25C15.6533 14 15.081 14.2371 14.659 14.659C14.2371 15.081 14 15.6533 14 16.25V20.75C14 21.3467 14.2371 21.919 14.659 22.341C15.081 22.7629 15.6533 23 16.25 23H20.75C21.3467 23 21.919 22.7629 22.341 22.341C22.7629 21.919 23 21.3467 23 20.75V16.25ZM20.75 15.5C20.9489 15.5 21.1397 15.579 21.2803 15.7197C21.421 15.8603 21.5 16.0511 21.5 16.25V20.75C21.5 20.9489 21.421 21.1397 21.2803 21.2803C21.1397 21.421 20.9489 21.5 20.75 21.5H16.25C16.0511 21.5 15.8603 21.421 15.7197 21.2803C15.579 21.1397 15.5 20.9489 15.5 20.75V16.25C15.5 16.0511 15.579 15.8603 15.7197 15.7197C15.8603 15.579 16.0511 15.5 16.25 15.5H20.75ZM11 16.25C11 15.6533 10.7629 15.081 10.341 14.659C9.91903 14.2371 9.34674 14 8.75 14H4.25C3.65326 14 3.08097 14.2371 2.65901 14.659C2.23705 15.081 2 15.6533 2 16.25V20.75C2 21.3467 2.23705 21.919 2.65901 22.341C3.08097 22.7629 3.65326 23 4.25 23H8.75C9.34674 23 9.91903 22.7629 10.341 22.341C10.7629 21.919 11 21.3467 11 20.75V16.25ZM8.75 15.5C8.94891 15.5 9.13968 15.579 9.28033 15.7197C9.42098 15.8603 9.5 16.0511 9.5 16.25V20.75C9.5 20.9489 9.42098 21.1397 9.28033 21.2803C9.13968 21.421 8.94891 21.5 8.75 21.5H4.25C4.05109 21.5 3.86032 21.421 3.71967 21.2803C3.57902 21.1397 3.5 20.9489 3.5 20.75V16.25C3.5 16.0511 3.57902 15.8603 3.71967 15.7197C3.86032 15.579 4.05109 15.5 4.25 15.5H8.75Z" fill="black" fill-opacity="0.8"/>
</svg>
